<mxfile host="app.diagrams.net" modified="2024-03-28T17:14:26.265Z" agent="Mozilla/5.0 (Windows NT 10.0; Win64; x64) AppleWebKit/537.36 (KHTML, like Gecko) Chrome/123.0.0.0 Safari/537.36" etag="uFrpXEguH9Jl2k4Vjm33" version="24.1.0" type="github">
  <diagram name="第 1 页" id="9XwTSaldfWvLcYyXnSAD">
    <mxGraphModel dx="1562" dy="845" grid="1" gridSize="10" guides="1" tooltips="1" connect="1" arrows="1" fold="1" page="1" pageScale="1" pageWidth="827" pageHeight="1169" math="0" shadow="0">
      <root>
        <mxCell id="0" />
        <mxCell id="1" parent="0" />
        <mxCell id="31IPPnsHwMOyQvvF-uUq-6" value="" style="rounded=0;whiteSpace=wrap;html=1;fillColor=#f5f5f5;fontColor=#333333;strokeColor=#666666;" vertex="1" parent="1">
          <mxGeometry x="394" y="20" width="220" height="380" as="geometry" />
        </mxCell>
        <mxCell id="31IPPnsHwMOyQvvF-uUq-5" value="事务 B" style="rounded=1;whiteSpace=wrap;html=1;fillColor=#e1d5e7;strokeColor=#9673a6;" vertex="1" parent="1">
          <mxGeometry x="409" y="40" width="190" height="60" as="geometry" />
        </mxCell>
        <mxCell id="31IPPnsHwMOyQvvF-uUq-7" value="" style="rounded=0;whiteSpace=wrap;html=1;fillColor=#f5f5f5;fontColor=#333333;strokeColor=#666666;" vertex="1" parent="1">
          <mxGeometry x="100" y="20" width="220" height="380" as="geometry" />
        </mxCell>
        <mxCell id="31IPPnsHwMOyQvvF-uUq-8" value="事务 A" style="rounded=1;whiteSpace=wrap;html=1;fillColor=#dae8fc;strokeColor=#6c8ebf;" vertex="1" parent="1">
          <mxGeometry x="115" y="40" width="190" height="60" as="geometry" />
        </mxCell>
        <mxCell id="31IPPnsHwMOyQvvF-uUq-9" value="insert into t values(null, 1, 1)" style="text;html=1;align=center;verticalAlign=middle;whiteSpace=wrap;rounded=0;fontStyle=1" vertex="1" parent="1">
          <mxGeometry x="100" y="130" width="220" height="30" as="geometry" />
        </mxCell>
        <mxCell id="31IPPnsHwMOyQvvF-uUq-10" value="" style="shape=flexArrow;endArrow=classic;html=1;rounded=0;" edge="1" parent="1">
          <mxGeometry width="50" height="50" relative="1" as="geometry">
            <mxPoint x="30" y="60" as="sourcePoint" />
            <mxPoint x="30" y="410" as="targetPoint" />
          </mxGeometry>
        </mxCell>
        <mxCell id="31IPPnsHwMOyQvvF-uUq-11" value="insert into t values(null, 2, 2)" style="text;html=1;align=center;verticalAlign=middle;whiteSpace=wrap;rounded=0;fontStyle=1" vertex="1" parent="1">
          <mxGeometry x="100" y="170" width="220" height="30" as="geometry" />
        </mxCell>
        <mxCell id="31IPPnsHwMOyQvvF-uUq-12" value="insert into t values(null, 3, 3)" style="text;html=1;align=center;verticalAlign=middle;whiteSpace=wrap;rounded=0;fontStyle=1" vertex="1" parent="1">
          <mxGeometry x="100" y="210" width="220" height="30" as="geometry" />
        </mxCell>
        <mxCell id="31IPPnsHwMOyQvvF-uUq-13" value="insert into t values(null, 4, 4)" style="text;html=1;align=center;verticalAlign=middle;whiteSpace=wrap;rounded=0;fontStyle=1" vertex="1" parent="1">
          <mxGeometry x="100" y="250" width="220" height="30" as="geometry" />
        </mxCell>
        <mxCell id="31IPPnsHwMOyQvvF-uUq-14" value="insert into t2 values(null, 5, 5)" style="text;html=1;align=center;verticalAlign=middle;whiteSpace=wrap;rounded=0;fontStyle=1" vertex="1" parent="1">
          <mxGeometry x="100" y="340" width="220" height="30" as="geometry" />
        </mxCell>
        <mxCell id="31IPPnsHwMOyQvvF-uUq-15" value="create table t2 like t;" style="text;html=1;align=center;verticalAlign=middle;whiteSpace=wrap;rounded=0;fontStyle=1" vertex="1" parent="1">
          <mxGeometry x="394" y="290" width="220" height="30" as="geometry" />
        </mxCell>
        <mxCell id="31IPPnsHwMOyQvvF-uUq-16" value="insert into t2(c,d) select c,d from t;" style="text;html=1;align=center;verticalAlign=middle;whiteSpace=wrap;rounded=0;fontStyle=1" vertex="1" parent="1">
          <mxGeometry x="394" y="340" width="220" height="30" as="geometry" />
        </mxCell>
        <mxCell id="31IPPnsHwMOyQvvF-uUq-17" value="" style="endArrow=none;dashed=1;html=1;dashPattern=1 3;strokeWidth=2;rounded=0;strokeColor=#FF0000;" edge="1" parent="1">
          <mxGeometry width="50" height="50" relative="1" as="geometry">
            <mxPoint x="60" y="290" as="sourcePoint" />
            <mxPoint x="720" y="290" as="targetPoint" />
          </mxGeometry>
        </mxCell>
        <mxCell id="31IPPnsHwMOyQvvF-uUq-19" value="时间序列" style="text;html=1;align=center;verticalAlign=middle;whiteSpace=wrap;rounded=0;" vertex="1" parent="1">
          <mxGeometry y="85" width="20" height="300" as="geometry" />
        </mxCell>
      </root>
    </mxGraphModel>
  </diagram>
</mxfile>
